<svg width="18" height="18" viewBox="0 0 18 18" fill="none" xmlns="http://www.w3.org/2000/svg">
<path d="M7.39998 0.200012C3.6406 0.200012 0.599976 3.24064 0.599976 7.00001C0.599976 10.7594 3.6406 13.8 7.39998 13.8C8.74216 13.8 9.98435 13.4063 11.0375 12.7375L15.95 17.65L17.65 15.95L12.8 11.1125C13.6719 9.96876 14.2 8.55157 14.2 7.00001C14.2 3.24064 11.1594 0.200012 7.39998 0.200012ZM7.39998 1.80001C10.2797 1.80001 12.6 4.12032 12.6 7.00001C12.6 9.8797 10.2797 12.2 7.39998 12.2C4.52029 12.2 2.19998 9.8797 2.19998 7.00001C2.19998 4.12032 4.52029 1.80001 7.39998 1.80001Z" fill="black"/>
</svg>
