<svg width="20" height="19" viewBox="0 0 20 19" fill="none" xmlns="http://www.w3.org/2000/svg">
<path d="M10 0.420319C9.91301 0.420319 9.82635 0.447912 9.75235 0.503912L0.552351 7.68438C0.380351 7.82038 0.348382 8.07166 0.484382 8.24766C0.620382 8.41966 0.871663 8.45163 1.04766 8.31563L1.60001 7.88438V18.4C1.60001 18.62 1.78001 18.8 2.00001 18.8H7.60001V11.6H12.4V18.8H18C18.22 18.8 18.4 18.62 18.4 18.4V7.88438L18.9524 8.31563C19.0284 8.37163 19.112 8.40001 19.2 8.40001C19.32 8.40001 19.4356 8.34766 19.5156 8.24766C19.6516 8.07166 19.6197 7.82038 19.4477 7.68438L10.2477 0.503912C10.1737 0.447912 10.087 0.420319 10 0.420319ZM14 2.00001V2.42032L16.4 4.29219V2.00001H14Z" fill="black"/>
</svg>
